HIERARCHY
ROOT Hips
{
     OFFSET 1.88212 96.90440 -13.34250
     CHANNELS 6 Xposition Yposition Zposition Zrotation Xrotation Yrotation
     JOINT Spine
     {
          OFFSET 0.00000 11.89050 0.00000
          CHANNELS 3 Zrotation Xrotation Yrotation
          JOINT Spine1
          {
               OFFSET -0.00000 25.65740 0.12766
               CHANNELS 3 Zrotation Xrotation Yrotation
               JOINT HEad
               {
                    OFFSET 0.00000 8.73416 0.01134
                    CHANNELS 3 Zrotation Xrotation Yrotation
                    End Site
                    {
                         OFFSET -0.29000 12.77420 2.51395
                    }
               }
               JOINT LeftShoulder1
               {
                    OFFSET 8.99000 -0.36225 -0.22000
                    CHANNELS 3 Zrotation Xrotation Yrotation
                    JOINT LeftArm
                    {
                         OFFSET 10.28270 -0.00338 0.32212
                         CHANNELS 3 Zrotation Xrotation Yrotation
                         JOINT LeftForeArm
                         {
                              OFFSET 32.76690 0.09914 -1.42434
                              CHANNELS 3 Zrotation Xrotation Yrotation
                              JOINT LeftHand
                              {
                                   OFFSET 27.56430 0.08536 1.02216
                                   CHANNELS 3 Zrotation Xrotation Yrotation
                                   End Site
                                   {
                                        OFFSET 16.74430 -0.60000 1.50291
                                   }
                              }
                         }
                    }
               }
               JOINT RightShoulder
               {
                    OFFSET -8.99000 -0.36225 -0.22000
                    CHANNELS 3 Zrotation Xrotation Yrotation
                    JOINT RightArm
                    {
                         OFFSET -10.28270 -0.00338 0.32212
                         CHANNELS 3 Zrotation Xrotation Yrotation
                         JOINT RightForeArm
                         {
                              OFFSET -32.89710 0.09914 -1.42434
                              CHANNELS 3 Zrotation Xrotation Yrotation
                              JOINT RightHand
                              {
                                   OFFSET -27.49210 0.08536 1.02216
                                   CHANNELS 3 Zrotation Xrotation Yrotation
                                   End Site
                                   {
                                        OFFSET -16.63120 -0.60000 1.50291
                                   }
                              }
                         }
                    }
               }
          }
     }
     JOINT LeftUpLeg
     {
          OFFSET 8.94580 -8.66707 0.10165
          CHANNELS 3 Zrotation Xrotation Yrotation
          JOINT LeftLeg
          {
               OFFSET 0.00000 -44.42270 1.37270
               CHANNELS 3 Zrotation Xrotation Yrotation
               JOINT LeftFoot
               {
                    OFFSET -0.25355 -42.09240 -1.46059
                    CHANNELS 3 Zrotation Xrotation Yrotation
                    JOINT LeftToes
                    {
                         OFFSET -0.04000 -4.41509 8.49910
                         CHANNELS 3 Zrotation Xrotation Yrotation
                         End Site
                         {
                              OFFSET 0.08000 -0.04745 9.77979
                         }
                    }
               }
          }
     }
     JOINT RightUpLeg
     {
          OFFSET -8.94580 -8.66707 0.10165
          CHANNELS 3 Zrotation Xrotation Yrotation
          JOINT RightLeg
          {
               OFFSET 0.00000 -44.42270 1.37270
               CHANNELS 3 Zrotation Xrotation Yrotation
               JOINT RightFoot
               {
                    OFFSET 0.25355 -42.09240 -1.46059
                    CHANNELS 3 Zrotation Xrotation Yrotation
                    JOINT RightToes
                    {
                         OFFSET 0.04000 -4.41509 8.49910
                         CHANNELS 3 Zrotation Xrotation Yrotation
                         End Site
                         {
                              OFFSET -0.08000 -0.13745 9.77979
                         }
                    }
               }
          }
     }
}
MOTION
Frames: 20
Frame Time: 0.01667
-411.02780 94.26409 252.05200 28.62655 -11.13270 12.89236 -37.66832 30.43296 4.32146 0.00315 -0.01413 -0.02934 -18.13872 -1.73573 5.61245 5.13761 3.69455 -4.70232 -136.17911 -51.20061 -117.05752 -37.96943 54.61646 -78.56837 21.93847 14.93905 -8.48172 11.54086 3.27204 -7.45830 68.15511 16.22112 85.01135 -18.45594 22.32582 102.80976 14.05326 11.35049 6.93465 1.67649 -14.72612 4.28778 -50.08545 39.20561 82.52383 -12.63011 -0.12706 0.00344 7.10155 20.45876 -1.49493 -48.34473 5.38348 6.58957 28.27098 8.81987 -28.03484 -22.79962 -0.00380 -0.00542 10.59867 -19.43661 21.49787 
-411.67358 94.88640 251.26190 31.95671 -10.77426 13.80933 -39.78697 30.91810 4.62071 0.00112 -0.00781 -0.02413 -22.86634 -1.12223 3.19115 4.74819 3.58807 -4.95171 -118.03754 -53.56990 -102.96233 -26.95758 43.08949 -82.42603 16.94081 5.17070 -28.78006 10.37107 3.22230 -7.89746 65.33962 18.54237 86.13892 -18.15631 21.06902 101.62946 20.87761 -8.29806 14.94656 -2.14228 -19.08559 9.34397 -46.85656 48.73806 75.81079 -17.71526 -0.13710 -0.06145 -7.14203 16.58927 -3.83243 -51.01003 5.28611 9.74712 28.97105 6.78609 -31.15695 -24.79247 -0.00647 0.00244 11.38887 -18.92164 21.38902 
-412.38385 95.55825 250.60075 34.86088 -12.70225 13.69970 -41.78068 31.89896 6.88470 -0.00045 -0.00203 -0.01855 -27.22170 0.04377 1.61120 4.12765 3.91998 -4.83659 -98.13387 -53.35755 -88.14491 -18.61590 29.33064 -80.56033 19.37744 14.72243 -7.71459 9.22046 3.58643 -7.77721 63.44337 20.24821 86.80524 -12.85117 21.57934 100.06918 14.24892 10.52682 9.18737 -3.71960 -22.14524 16.37314 -39.86342 58.46712 64.67130 -32.76204 -0.74753 -0.06147 6.37261 16.30795 4.77884 -53.47531 5.89572 14.96968 30.87792 4.50440 -34.10985 -28.08082 -0.00896 -0.00445 12.66583 -18.82820 21.32023 
-413.14832 96.18683 250.06918 37.28967 -16.56684 12.92105 -43.57178 33.33418 10.70525 -0.00264 0.00335 -0.01415 -29.82714 1.67866 1.10149 3.16575 4.59046 -4.46135 -78.84321 -50.47773 -73.96169 -11.85501 14.09826 -75.50908 13.17425 6.50185 -25.07535 8.04334 4.25877 -7.28311 62.23363 21.79895 87.07617 -9.96113 22.03812 98.95657 18.41595 3.88617 8.59713 -2.70338 -24.11268 25.15617 -25.05660 66.51321 47.61985 -30.17956 0.08774 0.00923 -11.23551 3.09520 1.14274 -55.50038 7.06271 21.77974 31.80019 2.73754 -36.54301 -30.40630 -0.00348 -0.00289 14.14888 -18.73329 21.20193 
-413.94281 96.59441 249.66400 39.37201 -20.11928 12.31727 -44.62854 34.31278 13.68870 -0.00714 0.01019 -0.01108 -30.87746 3.65625 1.40964 1.80941 5.55022 -4.19749 -62.08619 -44.98458 -61.57580 -6.14932 -2.25252 -68.05294 12.02990 9.72290 -7.04574 6.65661 5.23018 -6.54607 61.63422 23.30527 87.06032 -8.55596 22.60408 97.96267 15.48174 13.49696 6.32243 0.34200 -26.67057 34.59720 -5.99239 69.54365 27.36962 -30.13965 -0.01528 0.01413 -22.48123 -1.95545 1.70038 -57.27302 8.09939 27.89768 32.10028 1.60426 -38.60722 -30.03421 0.00181 -0.00035 13.59751 -18.80568 21.01986 
-414.71854 96.73141 249.37543 41.19584 -23.37028 11.89367 -45.08536 34.98931 15.85504 -0.01207 0.01667 -0.00863 -31.94598 5.66584 2.13754 0.17966 6.75273 -4.01008 -49.04945 -36.88498 -51.12476 -1.37395 -19.32320 -59.67746 5.28398 2.18550 -32.86626 5.11547 6.47921 -5.61651 61.41610 24.76471 86.76595 -8.06973 23.34072 97.08608 18.17510 8.80201 6.23050 5.60474 -29.13884 44.45597 11.06312 69.15174 9.43653 -30.10219 -0.01727 0.00132 -23.96400 -9.55018 1.05599 -58.70808 9.02767 33.29570 32.35197 0.86818 -40.41265 -29.56464 0.00111 0.00205 12.90160 -19.13378 20.77311 
-415.37048 96.56365 249.26129 42.79113 -26.33885 11.64421 -44.99393 35.46903 17.23479 -0.01515 0.02243 -0.00547 -33.04804 7.66473 3.22850 -1.19125 8.02332 -3.98875 -40.79683 -27.06029 -42.33711 2.15964 -36.05400 -51.77963 2.11343 9.39422 -12.32822 3.63591 7.85132 -4.43170 61.33333 26.09554 86.13035 -8.07948 24.13353 96.23920 16.24967 13.83784 5.48380 12.97094 -30.78684 54.15998 22.43277 66.34514 -3.37058 -30.04933 -0.03788 -0.01301 -24.39467 -16.00121 1.00915 -59.65335 9.81773 37.94691 33.10474 0.17322 -41.99005 -29.10798 0.00211 0.01019 11.36226 -19.67557 20.33089 
-415.76093 96.16511 249.47058 44.10530 -29.06068 11.47958 -44.25640 35.75085 17.91276 -0.01389 0.02245 -0.00062 -32.82281 9.84444 4.67474 -2.20835 8.98144 -3.64743 -37.50669 -19.63211 -37.60833 4.58627 -46.48148 -47.01178 -2.85994 5.75074 -34.13925 2.61495 8.90527 -2.90223 61.22741 27.27917 84.91598 -8.28632 24.88101 95.44049 17.23598 11.43205 6.53110 21.51370 -30.98495 62.65323 26.68224 62.50735 -9.74125 -29.22808 -0.01549 -0.07065 -24.81103 -21.87387 1.44817 -59.86226 10.52053 40.73248 33.47420 0.88609 -42.61292 -28.43868 -0.00119 0.00460 9.83485 -20.49620 19.92165 
-415.83990 95.70267 250.06833 45.10126 -31.57976 11.28705 -42.79097 35.78765 17.99772 -0.00964 0.01798 0.00212 -31.47856 11.86710 6.20260 5.48091 1.46578 -3.02294 -44.83900 -7.95513 -29.98789 6.01738 -52.63586 -44.83234 11.48806 10.87086 -10.74177 9.66606 3.25014 3.40065 60.92560 28.24722 75.76566 -8.92661 27.86433 91.68822 15.44891 14.50862 7.04897 30.13545 -29.85669 69.12789 25.58520 58.35059 -11.92918 -27.76019 0.02013 -0.15179 -24.80999 -28.17766 2.91164 -59.65593 11.27446 41.91346 33.95916 2.26800 -42.18818 -29.05216 -0.00119 -0.00160 9.26512 -21.50692 19.46202 
-415.59369 95.27853 251.05637 45.76076 -33.92392 10.98143 -38.94745 35.37780 16.61139 0.09277 -0.02945 0.00367 -30.56429 14.08797 7.91625 3.04222 3.30306 -2.32105 -44.49276 -9.14071 -26.80269 2.17170 -52.68288 -46.87704 10.12164 15.04992 -42.23700 16.78638 -1.14531 8.53909 61.86751 29.88774 68.24869 -7.99840 29.77152 90.12344 11.34836 13.96599 23.48777 38.02233 -28.01374 73.18845 21.98339 54.90388 -12.22488 -27.26922 -0.00691 -0.08000 -23.18744 -35.65824 4.53588 -59.60507 12.20683 41.77835 34.16209 4.54972 -40.66512 -29.25675 -0.00089 -0.00558 8.88053 -22.76663 18.97434 
-414.99811 94.90040 252.43686 46.11045 -36.12133 10.51526 -33.26663 34.42770 14.27879 0.08706 -0.02697 0.01994 -29.71558 16.35753 9.42457 8.11684 -1.77173 0.05758 -52.08096 -7.88270 -19.47024 -0.20216 -50.95002 -51.12477 11.26116 17.38696 -34.16874 14.16212 1.83375 8.86123 66.07092 30.92823 71.86321 -6.15884 31.00458 89.65906 22.20464 12.04400 0.20263 45.05583 -26.10146 74.99827 17.54373 51.88661 -11.95106 -27.78637 -0.04732 -0.00569 -19.44871 -44.53245 7.17035 -60.21675 13.42569 40.65436 34.09277 7.21690 -37.86847 -29.04493 -0.00210 -0.00069 8.68043 -24.20996 18.65112 
-414.36343 94.41444 253.92249 46.12861 -38.17294 9.86532 -26.23152 32.92698 11.33319 0.07261 -0.01845 0.02244 -28.88731 18.56126 10.57218 2.86892 1.74075 -0.06424 -50.63870 -16.35505 -16.38827 -4.33534 -44.89212 -54.65663 3.15016 14.85201 -33.16704 10.47319 5.19508 9.13812 68.62758 31.48581 73.00290 -5.03384 32.07312 88.97342 12.08615 12.73525 28.28397 51.29292 -24.44213 74.83650 12.73168 49.06047 -11.55401 -29.01776 -0.09661 0.03526 -12.17566 -54.85397 12.37396 -60.84464 14.46035 39.62434 33.81927 9.95875 -35.18921 -28.67903 -0.00290 0.00235 8.62046 -25.74295 18.28533 
-413.78680 93.72819 255.38269 45.74759 -40.05247 9.01303 -19.83500 31.24734 8.73296 -0.03836 0.03813 0.01271 -26.47360 19.93368 10.92008 -1.78983 5.08014 0.18822 -49.81663 -21.92094 -14.14932 -6.53901 -40.49167 -56.21791 4.18857 16.43077 -28.03212 6.81458 8.40373 9.43944 70.21729 31.82840 73.02766 -4.32429 32.94110 88.06724 25.10958 5.15161 -7.38841 56.75964 -23.11470 72.96178 7.13119 46.08830 -10.67002 -27.26782 0.06965 -0.10903 0.37892 -66.10592 24.87304 -61.28204 15.23977 38.61884 33.57705 12.68254 -32.75293 -28.45418 -0.00366 0.00149 8.65315 -27.36028 17.98265 
-413.28101 92.87845 256.73758 44.95047 -41.71259 7.99096 -14.20002 29.41482 6.42939 -0.04813 0.04322 0.00795 -24.24367 21.37148 11.15002 -6.18852 8.36814 0.79356 -49.48082 -25.45336 -12.59573 -7.68852 -37.38091 -56.90687 0.31215 14.17961 -27.97005 2.88933 11.53102 9.60874 71.28589 32.22617 72.69752 -3.75019 33.35079 87.74536 26.89229 6.06491 7.48915 61.55503 -22.12759 69.65708 0.61236 45.19209 -7.28513 -16.26320 0.39616 -0.38392 -2.64298 -39.46066 25.41518 -61.38147 15.73215 37.54464 33.56662 15.37756 -30.69583 -28.58444 -0.00432 -0.00304 8.75926 -29.03498 17.63275 
-412.72687 92.06437 258.02206 43.82030 -43.11262 6.86753 -9.47789 27.46814 4.42160 -0.05053 0.04662 0.00804 -22.02399 22.80408 11.27977 -10.03466 11.39448 1.74366 -49.57242 -27.46108 -11.54097 -8.17600 -35.37520 -57.11557 0.94999 15.25573 -25.22457 -0.66596 14.43264 10.08412 71.86478 32.42930 72.13580 -3.23883 33.46478 87.11362 25.38466 5.76404 -4.80511 65.93061 -21.55375 65.25439 -6.40881 46.56077 -1.21118 -19.20540 0.00902 0.05924 0.45152 -20.07288 18.60629 -61.18575 15.95975 36.37848 33.84420 18.03372 -29.06476 -29.09939 -0.00442 -0.00873 8.97536 -30.73462 17.25405 
-412.19113 91.44582 259.13916 42.55743 -44.24678 5.77063 -7.01965 26.68200 3.25136 -0.13656 0.11434 -0.00471 -18.50805 22.96097 10.87344 -11.91019 12.91048 2.69781 -53.30690 -25.55618 -11.08533 -6.10359 -36.33886 -59.28514 -11.75418 3.04347 -10.42136 -2.95887 15.78852 10.64023 69.95235 31.38075 69.66214 -2.89919 31.72035 90.42474 25.89689 6.73621 4.67611 70.02532 -21.59746 60.01345 -15.08367 51.16084 10.50211 -8.90289 -0.10790 0.24669 -3.76232 -7.54893 16.94670 -60.81353 15.97783 35.15363 34.32546 20.62003 -27.86418 -29.92889 -0.00357 -0.01312 9.35290 -32.40390 16.87077 
-411.70929 91.13349 260.03378 41.38034 -45.14005 4.83055 -6.53650 26.85501 2.79275 -0.13304 0.10136 -0.00137 -15.70953 22.52487 10.18377 -12.60343 13.41316 3.48401 -55.44614 -24.12450 -10.85406 -4.88207 -37.16570 -60.61794 -3.35054 10.89875 -17.88433 -4.21191 16.07469 11.13255 66.86446 29.84023 66.11988 -1.22400 29.92548 90.29531 23.24591 9.52377 1.42894 73.41473 -22.50063 53.94370 -27.65805 56.55124 28.45842 -10.41514 0.13195 -0.00268 -1.81632 1.55764 14.75154 -60.36180 15.85378 33.92572 34.87041 23.05163 -27.07196 -30.98049 -0.00212 -0.01474 9.92562 -33.97095 16.56446 
-411.29498 90.94079 260.70197 40.28709 -45.80249 4.08256 -7.58592 27.80282 2.95102 -0.11403 0.09066 0.00423 -13.67140 21.59023 9.49291 -12.09581 13.00261 4.04892 -56.76166 -22.94298 -10.92394 -4.15245 -37.70758 -61.37175 -9.42205 5.72128 -13.03109 -3.90752 15.50268 11.37235 64.89927 29.32775 64.27757 -0.06014 28.74519 90.25063 22.04298 11.64215 9.69988 73.42353 -23.62636 47.02803 -52.36625 64.81660 56.79210 -12.29177 0.10014 -0.20702 0.15893 1.69061 5.73812 -59.79882 15.62735 32.69140 35.22220 25.37508 -26.57063 -30.06253 -0.00195 0.00889 8.78325 -35.37740 16.33906 
-410.89825 90.52776 261.17963 39.11629 -46.20846 3.47817 -9.65995 29.35644 3.65245 -0.09360 0.08522 0.01173 -12.40951 20.26415 8.90797 -10.24724 11.81921 4.40221 -57.78232 -21.89528 -11.25101 -3.83311 -37.97276 -62.15710 -3.75862 10.02308 -18.41440 -2.13884 14.21753 11.41517 63.54461 29.14584 63.29079 0.72828 27.94557 90.17355 20.74675 12.19822 6.47640 69.02326 -23.33772 39.84978 -89.22558 67.75373 94.58270 -14.96448 0.18012 -0.41492 -3.75970 -3.80590 0.24084 -59.08089 15.27106 31.40563 35.87086 27.47890 -26.48345 -29.40545 -0.00179 0.00637 7.84324 -36.63981 16.21725 
-410.43872 89.71771 261.54501 37.74363 -46.34347 2.93460 -12.33139 31.38904 4.89986 -0.07330 0.08273 0.01977 -11.96821 18.61464 8.46834 -7.28195 9.96188 4.52083 -58.66919 -21.06518 -11.78331 -3.91852 -37.76997 -63.18464 -6.97234 7.49515 -15.81872 0.65425 12.27028 11.17579 62.61082 29.12408 62.71921 1.21332 27.43050 90.43933 20.09604 12.99509 10.84068 60.59818 -20.69978 32.92896 -109.68523 66.24579 114.63288 -17.64420 0.19226 -0.36684 -19.82029 -9.88660 -6.48844 -58.25308 14.72775 30.06901 36.99046 29.46773 -26.81185 -29.01754 -0.00359 0.00205 7.10300 -37.85373 16.10822 
